PathFileType	4	(X/Y/Z)	..\data\2014048\dynamic\2014048_C4_01.trc
DataRate	CameraRate	NumFrames	NumMarkers	Units	OrigDataRate	OrigDataStartFrame	OrigNumFrames
100.000000	100.000000	4	52	mm	100.000000	46	186
Frame#	Time	L_IAS			L_IPS			R_IPS			R_IAS			L_FTC			L_FLE			L_FME			L_FAX			L_TTC			L_FAL			L_TAM			L_FCC			L_FM1			L_FM2			L_FM5			R_FTC			R_FLE			R_FME			R_FAX			R_TTC			R_FAL			R_TAM			R_FCC			R_FM1			R_FM2			R_FM5			CV7			TV10			SXS			SJN			L_SIA			L_SRS			L_SAA			L_SAE			L_HLE			L_HME			L_UOA			L_RSP			L_UHE			L_HM2			L_HM5			R_SIA			R_SRS			R_SAA			R_SAE			R_HLE			R_HME			R_UOA			R_RSP			R_UHE			R_HM2			R_HM5			
		X1	Y1	Z1	X2	Y2	Z2	X3	Y3	Z3	X4	Y4	Z4	X5	Y5	Z5	X6	Y6	Z6	X7	Y7	Z7	X8	Y8	Z8	X9	Y9	Z9	X10	Y10	Z10	X11	Y11	Z11	X12	Y12	Z12	X13	Y13	Z13	X14	Y14	Z14	X15	Y15	Z15	X16	Y16	Z16	X17	Y17	Z17	X18	Y18	Z18	X19	Y19	Z19	X20	Y20	Z20	X21	Y21	Z21	X22	Y22	Z22	X23	Y23	Z23	X24	Y24	Z24	X25	Y25	Z25	X26	Y26	Z26	X27	Y27	Z27	X28	Y28	Z28	X29	Y29	Z29	X30	Y30	Z30	X31	Y31	Z31	X32	Y32	Z32	X33	Y33	Z33	X34	Y34	Z34	X35	Y35	Z35	X36	Y36	Z36	X37	Y37	Z37	X38	Y38	Z38	X39	Y39	Z39	X40	Y40	Z40	X41	Y41	Z41	X42	Y42	Z42	X43	Y43	Z43	X44	Y44	Z44	X45	Y45	Z45	X46	Y46	Z46	X47	Y47	Z47	X48	Y48	Z48	X49	Y49	Z49	X50	Y50	Z50	X51	Y51	Z51	X52	Y52	Z52	

47	0.46	465.188690185547	899.2158203125002	-318.2490844726563	259.2898254394532	944.2120361328127	-259.3390502929688	256.9085693359376	946.8946533203127	-151.8271484375	458.819549560547	892.0379028320315	-77.77184295654298	391.3275451660157	882.1038208007815	-385.4686584472657	528.7271728515626	474.998992919922	-364.2929687500001	550.3154296875001	471.6871643066407	-235.2050170898438	512.8627319335939	416.1109619140626	-368.5732421875001	569.8519287109376	402.3740844726564	-315.9544677734376	414.0681457519532	109.0778350830078	-336.9090881347657	454.8684997558595	118.6544647216797	-256.4242553710938	367.1743164062501	74.19639587402345	-275.7994079589844	548.5221557617189	31.84861946105958	-289.2335815429688	543.3408203125001	39.10253524780274	-334.9614257812501	484.5493774414064	32.36289215087891	-373.4960021972657	373.5190734863282	867.993347167969	-6.601893901824953	346.1517639160157	441.906463623047	-73.08354949951173	355.3012695312501	445.4234924316407	-205.5320434570313	329.0482482910157	387.8762817382814	-73.2046356201172	382.8463745117188	382.3664245605469	-129.7083129882813	288.2477722167969	61.93890380859376	-110.4122390747071	306.0901794433594	82.85603332519533	-196.230209350586	241.9210357666016	24.39933013916016	-161.5584411621094	423.7299804687501	19.74617004394532	-173.9499664306641	423.7152404785157	33.14073181152344	-121.4313354492188	373.0383911132813	22.10212135314942	-80.77673339843751	314.3079833984376	1404.702270507813	-202.7256774902344	261.5636596679688	1124.16259765625	-201.4798583984376	473.8903198242189	1095.768310546875	-201.8577117919922	427.0762329101564	1320.35595703125	-207.3280944824219	232.4966735839844	1184.829223632813	-266.3668518066407	266.3948364257813	1324.3212890625	-279.5284423828126	302.5730895996094	1327.206787109375	-358.4300537109376	348.9537963867188	1330.804077148438	-371.7876892089844	276.9667053222657	1025.646484375	-419.437713623047	275.0086975097657	1017.204284667969	-337.5192565917969	255.4229278564454	1007.915344238281	-378.7175598144532	319.7933654785157	780.6442871093752	-417.4527587890626	257.0065917968751	801.8284301757815	-460.8162841796876	305.0620727539063	687.6804809570314	-420.6378479003907	227.8583679199219	727.2258911132814	-464.8045349121095	246.6525573730469	1183.46728515625	-102.3711624145508	273.3535461425782	1325.814453125	-112.5883255004883	327.6413879394532	1334.335571289063	-40.0195426940918	377.2520141601563	1332.673950195313	-27.84398651123048	403.0813293457032	1021.892944335938	46.80927658081055	384.1111450195314	1003.579406738281	-30.76843452453614	384.2868957519532	994.459899902344	18.77989578247071	575.4185180664064	841.8427734375002	22.57765579223633	513.6388549804689	818.6796875000002	70.57629394531251	625.7418212890626	768.367614746094	31.43299293518067	541.1571655273439	748.8624267578126	79.63121032714845	
48	0.47	473.565399169922	898.6335449218752	-318.2552490234376	267.4544982910157	943.3159790039065	-259.6437072753907	264.9909667968751	946.004333496094	-152.2974853515625	466.8042297363282	891.0354003906252	-77.63247680664064	399.7521057128907	881.3611450195315	-385.5493164062501	537.8310546875001	473.8895874023439	-363.4890136718751	556.9389038085939	470.3748474121095	-234.0975494384766	524.5468139648439	413.9822387695314	-368.1891174316407	580.8101806640626	402.6677551269532	-314.5893554687501	443.6538696289064	101.5293121337891	-338.5629882812501	482.6809997558595	113.2472610473633	-257.3327941894532	397.9747619628907	64.0706253051758	-278.4197692871094	581.5988769531251	32.18590164184571	-288.0454711914063	576.8925781250001	39.23941802978516	-333.8597717285157	519.3377685546876	29.21945953369141	-373.6386413574219	380.8917541503907	867.1063232421877	-6.847277641296388	350.7875366210938	441.3689270019532	-73.54721832275392	359.9265441894532	444.9788513183595	-205.9468841552735	332.9982910156251	387.4219360351564	-73.64074707031251	386.8035583496095	381.3251953125001	-130.12451171875	288.4620971679688	61.99123382568361	-110.6397705078125	306.7197265625001	82.44548797607423	-196.5153808593751	241.9420013427735	24.46102333068848	-161.7521057128907	423.8930969238282	19.56242561340332	-174.0081329345703	423.7810668945314	33.07939529418946	-121.4903793334961	373.0303344726563	22.08310508728028	-80.84071350097658	322.7403564453126	1403.87548828125	-202.6649475097657	269.7045288085938	1123.389526367188	-201.3793487548829	481.7600402832032	1094.589477539063	-201.6782379150391	435.3891906738282	1319.4072265625	-207.4904937744141	240.5108032226563	1183.9111328125	-265.7972717285157	274.4658813476563	1323.422119140625	-279.1666870117188	310.4048461914063	1326.12109375	-358.2053833007813	356.7368469238282	1329.614624023438	-371.7634277343751	282.7778015136719	1024.934814453125	-419.1312866210939	281.2694396972657	1016.388977050781	-337.2542724609376	261.2380676269532	1007.340515136719	-378.3302307128907	324.5663452148438	779.751647949219	-417.470184326172	261.6210327148438	801.1924438476565	-460.4785156250001	309.6000061035157	686.8912963867189	-420.7603454589845	232.1936492919922	726.6875610351564	-464.3094177246095	255.2584075927735	1182.842895507813	-101.9025421142578	282.0527648925782	1325.141723632813	-112.290512084961	336.4560241699219	1333.736450195313	-39.89438247680665	386.1431579589845	1332.07958984375	-27.92024230957032	414.8270568847657	1021.475402832031	46.9376564025879	395.6695251464845	1003.026611328125	-30.59077644348145	395.9855041503907	993.821228027344	19.04224586486817	590.0354003906251	844.5576171875002	21.52588081359864	528.9842529296876	820.0773925781252	69.61283111572267	641.7803955078126	772.1041259765627	29.92213439941407	557.7489624023439	750.7186279296876	78.24291229248048	
49	0.48	482.0465698242189	897.979919433594	-318.3614807128907	275.6801147460938	942.294860839844	-260.0298156738282	273.0995178222657	944.992126464844	-152.8836059570313	474.8662414550782	889.9962158203127	-77.55161285400392	408.2212219238282	880.4685668945315	-385.6695251464845	546.3566284179689	472.5023193359376	-362.6938781738282	562.7745971679689	468.5337524414064	-232.9521942138672	535.7607421875001	411.8402099609376	-367.8431396484376	591.1593627929689	402.750701904297	-313.2107543945313	473.2541503906251	94.95307922363283	-340.3706665039063	510.2507934570314	108.6013717651367	-258.3799743652344	428.8162536621095	54.94395065307619	-281.2784729003907	614.1059570312501	33.40447616577149	-286.7886962890626	610.0039672851564	40.33822250366212	-332.6747131347657	553.9354248046876	27.19431877136231	-373.7639465332032	388.4217529296876	866.1495361328127	-7.180132389068605	355.6680297851563	440.759735107422	-74.0801239013672	364.8198547363282	444.4687500000001	-206.4296569824219	337.1862487792969	386.9089965820314	-74.14693450927736	391.0047607421876	380.2153320312501	-130.5953063964844	288.7001342773438	62.0460662841797	-110.8734893798828	307.4272766113282	82.00098419189455	-196.8106536865235	241.9715576171876	24.56587028503419	-161.9507904052735	424.0599060058595	19.35989761352539	-174.0769958496094	423.8476867675782	33.0021095275879	-121.5570831298828	373.0447998046876	22.04362869262696	-80.92263793945314	331.2274780273438	1402.947021484375	-202.6658782958985	277.8750305175782	1122.523193359375	-201.3786010742188	489.7361145019532	1093.266845703125	-201.6271057128907	443.7621459960939	1318.344116210938	-207.7214508056641	248.5726928710938	1182.934448242188	-265.3190002441407	282.5792541503907	1322.469970703125	-278.8900451660157	318.3188476562501	1324.960327148438	-358.0536499023438	364.6063842773438	1328.334106445313	-371.7986145019532	288.6846313476563	1024.130615234375	-418.8634338378907	287.6448364257813	1015.486083984375	-337.0075378417969	267.2579345703126	1006.614562988281	-377.9812622070313	329.7121276855469	778.798522949219	-417.5066528320314	266.5706176757813	800.409851074219	-460.1421203613282	314.7113342285157	686.0386352539064	-420.9976196289064	237.0286560058594	725.9639892578126	-463.8838195800782	263.9588012695313	1182.11181640625	-101.5196304321289	290.8078918457032	1324.369018554688	-112.0567703247071	345.2900085449219	1333.031860351563	-39.82857894897462	395.0931396484376	1331.354370117188	-28.06276321411134	426.475311279297	1020.912048339844	46.98350143432618	407.0131225585939	1002.353454589844	-30.47004699707032	407.5198364257814	993.0667724609377	19.24038314819336	604.3272705078126	847.0652465820315	20.31714248657227	544.0537719726564	821.338562011719	68.51473999023439	657.4531860351564	775.661071777344	28.24820518493653	573.9685058593751	752.4592285156251	76.70796203613283	
50	0.49	490.6505126953126	897.2504882812502	-318.5394897460938	283.9940185546876	941.1534423828127	-260.5133361816407	281.2313842773438	943.8565673828127	-153.5823669433594	483.0074768066407	888.918884277344	-77.52358245849611	416.788787841797	879.4395751953127	-385.8355712890626	554.3619384765626	470.8871154785157	-361.9288635253907	567.9522094726564	466.2388610839845	-231.7967987060547	546.5124511718751	409.7474060058595	-367.5308532714844	600.9564819335939	402.6634521484376	-311.8424377441407	502.6260681152345	89.43972778320314	-342.2792968750001	537.3718872070314	104.7975845336914	-259.5381469726563	459.4437866210939	46.93287658691407	-284.2847290039063	645.7970581054689	35.49435806274415	-285.4975891113282	642.4047241210939	42.38593673706055	-331.4365234375001	588.0291748046876	26.30199432373048	-373.8639831542969	396.0907592773439	865.1226806640627	-7.585272789001467	360.7719116210938	440.0693359375001	-74.67116546630861	369.9914550781251	443.8767700195314	-206.9699707031251	341.5980224609376	386.3352050781251	-74.71424865722658	395.4355468750001	379.0352783203126	-131.1049041748047	288.9611206054688	62.10565567016603	-111.1088256835938	308.1868591308594	81.54372406005861	-197.1083221435547	242.0144958496094	24.72570228576661	-162.1551208496094	424.2181396484376	19.1478443145752	-174.150863647461	423.9100341796876	32.91021728515626	-121.6270751953125	373.0755004882813	21.98621940612793	-81.01708984375001	339.7667236328126	1401.9189453125	-202.7338104248047	286.0796508789063	1121.566284179688	-201.4828643798829	497.8161010742189	1091.836181640625	-201.7157287597657	452.1946716308595	1317.174926757813	-208.0257263183594	256.6887207031251	1181.904541015625	-264.9401550292969	290.7378234863282	1321.465209960938	-278.7019958496094	326.3112792968751	1323.733642578125	-357.9777526855469	372.5561218261719	1326.979614257813	-371.8985900878907	294.7002258300782	1023.244262695313	-418.6258850097657	294.1573181152344	1014.511047363281	-336.7693786621094	273.5100097656251	1005.745849609375	-377.6593627929688	335.2372436523438	777.7932128906252	-417.5741577148439	271.8558044433594	799.4970703125002	-459.8062438964845	320.3756713867188	685.1251220703126	-421.3449096679689	242.3504943847657	725.0772705078126	-463.5208435058595	272.7346801757813	1181.279663085938	-101.2273635864258	299.6080322265626	1323.497192382813	-111.8954544067383	354.1459045410157	1332.223266601563	-39.83088684082032	404.0965881347657	1330.505493164063	-28.27839851379395	438.0073852539064	1020.207702636719	46.94485092163087	418.1380920410157	1001.563171386719	-30.41238403320313	418.8856506347657	992.1975708007815	19.36933517456055	618.2694702148439	849.348327636719	18.94530487060547	558.8129882812501	822.464050292969	67.28277587890626	672.7356567382814	779.007995605469	26.40939903259278	589.7997436523439	754.0698852539064	75.03657531738283	
